<svg width="159" height="232" viewBox="0 0 159 232" fill="none" xmlns="http://www.w3.org/2000/svg">
<path d="M114.828 58.7927C119.988 62.8311 117.196 69.6401 106.017 79.7126C86.5696 97.494 78.6637 111.896 69.9525 145.378C66.6934 158.212 63.379 170.115 62.6095 171.669C59.7126 177.91 47.6333 175.863 46.5725 168.888C45.6474 163.592 55.1935 125.428 61.3141 110.593C68.0986 93.6362 80.3898 76.8905 94.5615 65.2039C106.053 55.5438 109.513 54.5482 114.828 58.7927Z" fill="black"/>
<path fill-rule="evenodd" clip-rule="evenodd" d="M152.097 61.5531C151.323 43.2097 147.15 18.3475 143.504 10.8758C142.175 8.30923 139.666 6.32797 136.584 5.93159C126.976 4.69583 89.1382 23.786 71.7419 38.6869C35.5172 69.5944 17.7106 110.611 7.21069 187.949L6.10121 195.848C4.31305 208.579 13.3771 220.279 26.1513 221.728L63.5032 225.964C63.5731 225.421 69.1259 219.501 76.0409 213.019C104.683 185.19 130.515 150.55 140.826 126.261C148.759 107.563 153.018 83.0484 152.097 61.5531ZM114.064 33.4419C97.9168 41.5006 72.6577 61.6557 63.3417 73.9102C45.756 97.448 35.973 126.228 27.5512 180.245L22.439 213.13C21.7312 217.683 24.9169 221.923 29.4865 222.511C34.756 223.189 40.0471 221.429 43.8608 217.73L58.4593 203.57C78.8418 184.078 97.6679 162.358 109.701 144.74C125.153 122.034 134.28 92.6168 133.802 67.6772C133.598 54.9354 129.798 27.1727 128.166 26.9629C127.804 26.9162 121.355 29.7725 114.064 33.4419Z" fill="black"/>
<path fill-rule="evenodd" clip-rule="evenodd" d="M63.5032 225.964C63.4332 226.508 51.875 224.645 51.875 224.645C51.875 224.645 63.5104 225.657 63.5032 225.964Z" fill="black"/>
<path d="M63.5032 225.964C63.4332 226.508 51.875 224.645 51.875 224.645C51.875 224.645 63.5104 225.657 63.5032 225.964ZM63.5032 225.964C63.5731 225.421 69.1259 219.501 76.0409 213.019C104.683 185.19 130.515 150.55 140.826 126.261C148.759 107.563 153.018 83.0484 152.097 61.5531C151.323 43.2096 147.15 18.3475 143.504 10.8758C142.175 8.30924 139.666 6.32797 136.584 5.93159C126.976 4.69584 89.1382 23.786 71.7419 38.6869C35.5172 69.5944 17.7106 110.611 7.21069 187.949L6.10121 195.848C4.31305 208.579 13.3771 220.279 26.1513 221.728L63.5032 225.964ZM114.064 33.4419C97.9168 41.5006 72.6577 61.6557 63.3417 73.9102C45.756 97.448 35.973 126.228 27.5512 180.245L22.439 213.13C21.7312 217.683 24.9169 221.923 29.4865 222.511C34.756 223.189 40.0471 221.429 43.8608 217.73L58.4593 203.57C78.8418 184.078 97.6679 162.358 109.701 144.74C125.153 122.034 134.28 92.6168 133.802 67.6772C133.598 54.9354 129.798 27.1727 128.166 26.9629C127.804 26.9162 121.355 29.7725 114.064 33.4419Z" stroke="black" stroke-width="11.75"/>
</svg>
